<?xml version="1.0" encoding="utf-8"?>
<!-- Generator: Adobe Illustrator 27.5.0, SVG Export Plug-In . SVG Version: 6.00 Build 0)  -->
<svg version="1.1" xmlns="http://www.w3.org/2000/svg" xmlns:xlink="http://www.w3.org/1999/xlink" x="0px" y="0px"
	 viewBox="0 0 1000 1000" style="enable-background:new 0 0 1000 1000;" xml:space="preserve">
<g id="Layer_1">
	<radialGradient id="SVGID_1_" cx="500" cy="500" r="500" gradientUnits="userSpaceOnUse">
		<stop  offset="0" style="stop-color:#FFFFFF"/>
		<stop  offset="1" style="stop-color:#E6E7E8"/>
	</radialGradient>
	<rect style="fill:url(#SVGID_1_);" width="1000" height="1000"/>
</g>
<g id="Layer_2">
	<g>
		<defs>
			<rect id="SVGID_00000151542406694722138890000018288531988664167091_" width="1000" height="1000"/>
		</defs>
		<clipPath id="SVGID_00000023258180621442371030000013802630980756277430_">
			<use xlink:href="#SVGID_00000151542406694722138890000018288531988664167091_"  style="overflow:visible;"/>
		</clipPath>
		<g style="clip-path:url(#SVGID_00000023258180621442371030000013802630980756277430_);">
			<g>
				<path style="fill:#25F4EE;" d="M284.279,644.974c0,43.262,15.18,82.988,40.517,114.122
					c-37.788-33.169-61.639-81.825-61.639-136.052c0-99.944,81.034-180.962,180.978-180.962c12.903,0,25.483,1.34,37.61,3.924
					v18.765c-5.426-0.517-10.933-0.759-16.488-0.759C365.312,464.013,284.279,545.03,284.279,644.974z M625.112,174.048h-89.657
					c-0.468,5.248-0.711,10.577-0.711,15.955v276.352c-0.081-0.048-0.161-0.097-0.242-0.145V609.77h-0.727
					c0.646,4.328,0.969,8.769,0.969,13.274c0,50.045-40.565,90.61-90.61,90.61c-20.121,0-38.708-6.572-53.759-17.667
					c16.31,23.9,43.763,39.596,74.881,39.596c50.045,0,90.61-40.565,90.61-90.61c0-4.505-0.323-8.946-0.969-13.274h0.727V488.139
					c0.081,0.048,0.162,0.097,0.242,0.145V211.933c0-5.377,0.242-10.706,0.711-15.955h68.729c-0.129-1.97-0.194-3.973-0.194-5.975
					V174.048z M661.93,262.914c12.499,18.329,31.554,31.829,53.791,37.126v-19.443C695.584,280.597,676.981,274.024,661.93,262.914z
					"/>
				<path style="fill:#231F20;" d="M715.721,300.04v70.925c-33.008,0-63.965-8.833-90.61-24.288V609.77h-0.484
					c0.323,4.376,0.484,8.817,0.484,13.274c0,99.96-81.018,180.978-180.978,180.978c-45.733,0-87.477-16.956-119.338-44.925
					c-25.337-31.135-40.517-70.86-40.517-114.122c0-99.944,81.034-180.962,180.978-180.962c5.555,0,11.062,0.242,16.488,0.759
					v75.834c-11.449-5.232-24.191-8.155-37.61-8.155c-50.028,0-90.594,40.565-90.594,90.594c0,29.907,14.485,56.44,36.835,72.943
					c16.31,23.9,43.763,39.596,74.881,39.596c50.045,0,90.61-40.565,90.61-90.61c0-4.505-0.323-8.946-0.969-13.274h0.727V488.139
					c0.081,0.048,0.162,0.097,0.242,0.145V211.933c0-5.377,0.242-10.706,0.711-15.955h68.729
					c1.792,27.437,15.793,51.53,36.625,66.936C674.429,281.243,693.485,294.743,715.721,300.04z"/>
				<path style="fill:#FE2C55;" d="M353.54,623.044c0-50.028,40.565-90.594,90.594-90.594c13.419,0,26.161,2.923,37.61,8.155
					v-75.834c7.17,0.63,14.227,1.696,21.122,3.165v94.599c-11.449-5.232-24.191-8.155-37.61-8.155
					c-50.029,0-90.594,40.565-90.594,90.594c0,18.926,5.797,36.496,15.713,51.013C368.025,679.484,353.54,652.952,353.54,623.044z
					 M661.93,262.914c-9.899-14.518-15.696-32.087-15.696-50.981v-15.955h-20.929C627.098,223.414,641.099,247.508,661.93,262.914z
					 M715.721,300.04v70.925c-33.008,0-63.965-8.833-90.61-24.288V609.77h-0.484c0.323,4.376,0.484,8.817,0.484,13.274
					c0,99.96-81.018,180.978-180.978,180.978c-45.733,0-87.477-16.956-119.338-44.925c33.185,40.791,83.779,66.855,140.461,66.855
					c99.96,0,180.978-81.018,180.978-180.978c0-4.457-0.162-8.898-0.485-13.274h0.485V368.607
					c26.645,15.454,57.602,24.288,90.61,24.288v-90.368C729.577,302.526,722.504,301.671,715.721,300.04z"/>
			</g>
		</g>
	</g>
</g>
</svg>
